<svg id="Layer_1" data-name="Layer 1" xmlns="http://www.w3.org/2000/svg" xmlns:xlink="http://www.w3.org/1999/xlink" viewBox="0 0 279.46 282.46"><defs><style>.cls-1{fill:#efefef;}.cls-2{fill:url(#linear-gradient);filter:url(#filter);}.cls-3{fill:#fffefe;filter:url(#filter-2);}.cls-4{fill:url(#linear-gradient-2);}.cls-5{fill:url(#linear-gradient-3);}.cls-6{fill:url(#linear-gradient-4);}.cls-7{fill:url(#linear-gradient-5);}.cls-8{fill:url(#linear-gradient-6);}.cls-9{fill:url(#linear-gradient-7);}.cls-10{fill:url(#linear-gradient-8);}.cls-11{fill:url(#linear-gradient-9);}.cls-12{fill:url(#linear-gradient-10);}.cls-13{fill:url(#linear-gradient-11);}</style><linearGradient id="linear-gradient" x1="11.4" y1="148.19" x2="256.41" y2="148.19" gradientUnits="userSpaceOnUse"><stop offset="0" stop-color="#aa076b"/><stop offset="1" stop-color="#61045f"/></linearGradient><filter id="filter" x="-13.86" y="16.79" width="300" height="277" filterUnits="userSpaceOnUse"><feOffset dx="2" dy="7" input="SourceAlpha"/><feGaussianBlur stdDeviation="9" result="blur"/><feFlood/><feComposite operator="in" in2="blur"/><feComposite in="SourceGraphic"/></filter><filter id="filter-2" x="17.46" y="37.47" width="236" height="219" filterUnits="userSpaceOnUse"><feOffset dx="2" dy="7" input="SourceAlpha"/><feGaussianBlur stdDeviation="9" result="blur-2"/><feFlood/><feComposite operator="in" in2="blur-2"/><feComposite in="SourceGraphic"/></filter><linearGradient id="linear-gradient-2" x1="183.22" y1="69.97" x2="110.98" y2="192.05" gradientUnits="userSpaceOnUse"><stop offset="0.41" stop-color="#aa076b"/><stop offset="0.63" stop-color="#a8076b"/><stop offset="0.75" stop-color="#a00769"/><stop offset="0.84" stop-color="#920667"/><stop offset="0.92" stop-color="#7f0564"/><stop offset="0.99" stop-color="#670460"/><stop offset="1" stop-color="#61045f"/></linearGradient><linearGradient id="linear-gradient-3" x1="183.22" y1="69.97" x2="110.98" y2="192.06" xlink:href="#linear-gradient-2"/><linearGradient id="linear-gradient-4" x1="176.84" y1="65.55" x2="103.99" y2="188.66" xlink:href="#linear-gradient-2"/><linearGradient id="linear-gradient-5" x1="176.83" y1="65.56" x2="104" y2="188.65" xlink:href="#linear-gradient-2"/><linearGradient id="linear-gradient-6" x1="169.35" y1="62.11" x2="97.11" y2="184.2" xlink:href="#linear-gradient-2"/><linearGradient id="linear-gradient-7" x1="169.35" y1="62.1" x2="97.1" y2="184.21" xlink:href="#linear-gradient-2"/><linearGradient id="linear-gradient-8" x1="213.66" y1="87.66" x2="141.42" y2="209.76" xlink:href="#linear-gradient-2"/><linearGradient id="linear-gradient-9" x1="213.66" y1="87.65" x2="141.41" y2="209.76" xlink:href="#linear-gradient-2"/><linearGradient id="linear-gradient-10" x1="138.97" y1="44.46" x2="66.73" y2="166.55" xlink:href="#linear-gradient-2"/><linearGradient id="linear-gradient-11" x1="138.98" y1="44.45" x2="66.73" y2="166.56" xlink:href="#linear-gradient-2"/></defs><path class="cls-1" d="M79.64,262.18a53.72,53.72,0,0,1-16-13.78c-17.36-21.36-25.13-49-26.31-76.26s3.77-54.38,9.57-81.06C52.1,66.94,58.63,41.83,75.61,23.57c4.83-5.2,10.71-9.87,17.72-11.44,6.2-1.39,12.69-.24,18.9,1.17C168.31,26,219,60.06,251.32,106.66c9.58,13.83,17.85,30,15.75,46.53-1.62,12.74-9.18,24-17.74,33.73-17.54,19.92-39.77,35.16-62.7,48.57-23.28,13.61-47.67,27.72-75,31.35C99.2,268.48,88.79,267.12,79.64,262.18Z"/><path class="cls-2" d="M19.05,139.06C6.13,106.88,6.56,74,44.13,56.13,100,29.54,183.53,29.54,231.61,64.68s17,104.46-15.54,141C199,224.93,178.92,246.13,154.29,256c-24.78,9.95-45.75-5-63.61-21.36C61.57,208,33.79,175.74,19.05,139.06Z"/><path class="cls-3" d="M57.74,181.11c-13.34-21.49-19.25-51.24-10.08-75.4,8.65-22.79,36.51-38.8,59.24-44.51,25.34-6.37,52.43-3.62,77.36,4.13,9.11,2.84,18.22,6.45,25.34,12.69,18.55,16.24,15,55.66,10.45,77.42-5.32,25.24-19.33,49.16-43.89,60.51-13.95,6.44-30,6.82-45.36,5.28-22.19-2.23-45-8.84-60.63-24.4A87.09,87.09,0,0,1,57.74,181.11Z"/><path class="cls-4" d="M154.16,130.21h-1V92a11,11,0,0,1,21.92,0v17.69A20.75,20.75,0,0,1,154.16,130.21Zm10-47a8.94,8.94,0,0,0-9,8.82v36.25a18.8,18.8,0,0,0,18-18.56V92A8.94,8.94,0,0,0,164.15,83.22Z"/><path class="cls-5" d="M154.16,130.92h-1.7V92a11.69,11.69,0,0,1,23.38,0v17.69A21.46,21.46,0,0,1,154.16,130.92Zm-.24-1.42h.24a20,20,0,0,0,20.22-19.77V92a10.23,10.23,0,0,0-20.46,0Zm.48-.46V92a9.75,9.75,0,0,1,19.5,0v17.69A19.48,19.48,0,0,1,155.17,129Zm9.75-45.1a8.2,8.2,0,0,0-8.29,8.1v35.48a18,18,0,0,0,16.58-17.79V92A8.2,8.2,0,0,0,164.15,83.94Z"/><path class="cls-6" d="M143.61,149.65H111.78V136.87l0-.1a11.29,11.29,0,0,1,9.45-8.45h33.88V140.7C154.17,145.89,149.34,149.65,143.61,149.65Zm-29.89-1.9h29.89c4.75,0,8.77-3.06,9.58-7.3V130.21H121.48a9.35,9.35,0,0,0-7.76,6.86Z"/><path class="cls-7" d="M143.61,150.36H111.05l0-13.74a12,12,0,0,1,10.06-9l.26,0h34.46l0,13.22C154.83,146.35,149.69,150.36,143.61,150.36Zm-31.11-1.42h31.11c5.37,0,9.91-3.52,10.79-8.36V129H121.34a10.54,10.54,0,0,0-8.83,7.89v12Zm31.11-.48H113l0-11.54a10.09,10.09,0,0,1,8.35-7.41h32.56v11.08C153,145.15,148.7,148.46,143.61,148.46ZM114.45,147h29.16c4.37,0,8.08-2.8,8.85-6.66v-9.46H121.54a8.65,8.65,0,0,0-7.09,6.24Z"/><path class="cls-8" d="M102.76,194.41a10.86,10.86,0,0,1-11-10.72V168.23a20.75,20.75,0,0,1,21-20.48h1v35.94A10.86,10.86,0,0,1,102.76,194.41Zm9-44.73a18.79,18.79,0,0,0-18,18.55v15.46a9,9,0,0,0,18,0Z"/><path class="cls-9" d="M102.76,195.12a11.57,11.57,0,0,1-11.69-11.43V168.23A21.46,21.46,0,0,1,112.75,147h1.7v36.65A11.58,11.58,0,0,1,102.76,195.12Zm10-46.66a20,20,0,0,0-20.22,19.77v15.46a10.23,10.23,0,0,0,20.46,0V148.46Zm-10,44.76A9.65,9.65,0,0,1,93,183.69V168.23A19.48,19.48,0,0,1,111.74,149l.76,0v34.76A9.64,9.64,0,0,1,102.76,193.22Zm8.29-42.78a18,18,0,0,0-16.58,17.79v15.46a8.29,8.29,0,0,0,16.58,0Z"/><path class="cls-10" d="M164.24,194.41a10.7,10.7,0,0,1-10.86-10.51V158.46a10.79,10.79,0,0,1,10.78-10.57l11-.15V183.9A10.71,10.71,0,0,1,164.24,194.41Zm-.06-44.62a8.85,8.85,0,0,0-8.86,8.67V183.9a8.93,8.93,0,0,0,17.85,0V149.66Z"/><path class="cls-11" d="M164.24,195.12a11.42,11.42,0,0,1-11.59-11.22V158.46a11.51,11.51,0,0,1,11.5-11.28l11.69-.16V183.9A11.42,11.42,0,0,1,164.24,195.12Zm10.14-46.66-10.21.14a10.08,10.08,0,0,0-10.07,9.86V183.9a10.15,10.15,0,0,0,20.28,0Zm-10.14,44.76a9.5,9.5,0,0,1-9.65-9.32V158.46a9.6,9.6,0,0,1,9.58-9.39l9.73-.13v35A9.51,9.51,0,0,1,164.24,193.22Zm-.05-42.72a8.14,8.14,0,0,0-8.14,8V183.9a8.2,8.2,0,0,0,16.39,0V150.39Z"/><path class="cls-12" d="M91.89,129.11V93a10.87,10.87,0,0,1,21.73,0v25.44A10.79,10.79,0,0,1,102.85,129Zm10.87-44.77A8.79,8.79,0,0,0,93.83,93v34.23l9-.12a8.86,8.86,0,0,0,8.86-8.67V93A8.78,8.78,0,0,0,102.76,84.34Z"/><path class="cls-13" d="M91.16,129.83V93a11.6,11.6,0,0,1,23.19,0v25.44a11.51,11.51,0,0,1-11.49,11.28Zm11.6-46.68A10,10,0,0,0,92.62,93v35.44l10.22-.14a10.08,10.08,0,0,0,10.06-9.86V93A10,10,0,0,0,102.76,83.15Zm-9.65,44.76V93a9.66,9.66,0,0,1,19.3,0v25.44a9.59,9.59,0,0,1-9.58,9.38Zm9.65-42.86a8.06,8.06,0,0,0-8.2,7.9v33.51l8.25-.11a8.14,8.14,0,0,0,8.14-8V93A8.05,8.05,0,0,0,102.76,85.05Z"/></svg>