<svg xmlns="http://www.w3.org/2000/svg" viewBox="0 0 533.64 509.47"><defs><style>.cls-1{fill:#f4803c;fill-rule:evenodd;}</style></defs><g id="Layer_2" data-name="Layer 2"><g id="Layer_1-2" data-name="Layer 1"><path class="cls-1" d="M290.39,10.87V222.92H522.73a10.87,10.87,0,0,0,10.77-12.41C517.11,95,420.42,5.41,301.76,0a10.5,10.5,0,0,0-8,3,10.44,10.44,0,0,0-3.37,7.85Zm22.4,256.87L456.17,411.12a10.9,10.9,0,0,0,15.72-.36,244.79,244.79,0,0,0,61.63-130.61,10.89,10.89,0,0,0-10.77-12.41ZM411,445.4a244.7,244.7,0,0,1-165.42,64.07C110,509.47,0,399.52,0,263.89,0,132.07,103.86,24.51,234.21,18.57a10.89,10.89,0,0,1,11.37,10.87V263.89L411.37,429.68A10.88,10.88,0,0,1,411,445.4ZM108.23,353.9c5.43,5.12,10.39,9.23,16.38,12.26a44.32,44.32,0,0,0,11.47,4l.23,9.56a10.83,10.83,0,1,0,21.66-.51l-.22-9.25a49.44,49.44,0,0,0,22.4-11.33,41.42,41.42,0,0,0,0-63A50.19,50.19,0,0,0,146.7,283.1a28.41,28.41,0,0,1-19-6.9,20.6,20.6,0,0,1-7.21-15.35h0a20.63,20.63,0,0,1,7.25-15.35,28.45,28.45,0,0,1,19-6.91v0c3.68,0,9.32,1.58,14.65,4,4.23,2,7.82,4.27,9.21,6.38a10.83,10.83,0,0,0,18.09-11.9c-3.79-5.77-10.72-10.7-18.22-14.19a70.65,70.65,0,0,0-13.09-4.56L157.08,207a10.83,10.83,0,1,0-21.65.51l.25,10.48a49.33,49.33,0,0,0-22.43,11.32,42.1,42.1,0,0,0-14.48,31.5h0a42.14,42.14,0,0,0,14.52,31.5,50.19,50.19,0,0,0,33.46,12.5,28.44,28.44,0,0,1,19,6.91,19.94,19.94,0,0,1,0,30.7,28.48,28.48,0,0,1-19,6.9,26.34,26.34,0,0,1-12.32-2.56c-3.66-1.85-7.2-4.85-11.29-8.7a10.85,10.85,0,0,0-14.87,15.8Z"/></g></g></svg>