<svg xmlns="http://www.w3.org/2000/svg" viewBox="0 0 486.92 548.21"><defs><style>.cls-1{fill:#f4803c;}</style></defs><g id="Layer_2" data-name="Layer 2"><g id="Layer_1-2" data-name="Layer 1"><path class="cls-1" d="M453.82,483.2,423,508.84l-13.45-18.68,28.35-23.58Zm-174-472V60.43H329ZM164.86,396.42H36.41V0H264V68.34a7.89,7.89,0,0,0,7.89,7.89h68.34v99.33a149,149,0,0,0-37-8.52,7.9,7.9,0,0,0-5-14H78.4a7.9,7.9,0,1,0,0,15.79H260.87a147.55,147.55,0,0,0-67.26,31.76l-.88.76a7.88,7.88,0,0,0-7.87-7.35h-10a7.9,7.9,0,0,0,0,15.79h8.68a148.26,148.26,0,0,0-18.66,186.65ZM70.54,79a7.9,7.9,0,0,0,7.9,7.9H170a7.9,7.9,0,1,0,0-15.79H78.4A7.89,7.89,0,0,0,70.52,79Zm0,41a7.9,7.9,0,0,0,7.86,7.89h116a7.9,7.9,0,0,0,0-15.79H78.4a7.9,7.9,0,0,0-7.88,7.9Zm0,81.94a7.9,7.9,0,0,0,7.9,7.89h75.09a7.9,7.9,0,0,0,0-15.79H78.4a7.9,7.9,0,0,0-7.88,7.86Zm0,41a7.9,7.9,0,0,0,7.9,7.89H146.3a7.9,7.9,0,0,0,0-15.79H78.4a7.89,7.89,0,0,0-7.88,7.87Zm63,81.88a7.89,7.89,0,0,0-7.9-7.89H78.4a7.9,7.9,0,1,0,0,15.79h47.21a7.9,7.9,0,0,0,7.92-7.9Zm3.65-40.95a7.9,7.9,0,0,0-7.9-7.9H78.4a7.9,7.9,0,1,0,0,15.79h50.86a7.9,7.9,0,0,0,7.92-7.89Zm39.76,128.43H28.51a7.9,7.9,0,0,1-7.88-7.9V36H0V432.41H198.54a148,148,0,0,1-21.6-20.19Zm216,7.42q-4.62,4.59-9.72,8.84-5.72,4.75-11.79,8.85l28.81,40,26.66-22.17Zm92.67,96.77L464.77,494.6l-32.52,27.09,17.63,24.46c.47.67,1.58,2.18,5.59,2.06a17.9,17.9,0,0,0,10.77-4.56L480.19,532h0a17.92,17.92,0,0,0,6.43-9.77c.88-3.91-.43-5.31-1-5.87ZM288.16,425.87a111.29,111.29,0,1,1,56.18-207.49l.65-.87,9.48-12.73,2.67-3.58h0a131.91,131.91,0,0,0-56.59-18.58,121.7,121.7,0,0,0-12.34-.56,132.45,132.45,0,1,0,80.56,237.76H324.38a111.45,111.45,0,0,1-36.24,6.06ZM274.91,374a3.38,3.38,0,0,0,3.38-3.38v-89.2a3.38,3.38,0,0,0-3.38-3.39H249.85a3.38,3.38,0,0,0-3.38,3.39v89.19a3.36,3.36,0,0,0,3.38,3.38Zm-16.08,30H448.76a7.9,7.9,0,0,0,0-15.79H236.84a100,100,0,0,0,22,15.78Zm62.59-30h0a3.38,3.38,0,0,0,3.39-3.38v-66.2a3.39,3.39,0,0,0-3.39-3.39H296a3.39,3.39,0,0,0-3.39,3.39v66.19A3.38,3.38,0,0,0,296,374Zm-1.06-124.51a7.89,7.89,0,0,0-3.28,2.39L304,268.12l-21.32-15.24a7.9,7.9,0,0,0-4.6-1.48H247.13a7.89,7.89,0,1,0,0,15.78h28.41l25.31,18.13a7.89,7.89,0,0,0,10.75-1.47l16.46-20.43L357.17,252a7.76,7.76,0,0,0,3.46-2.63l10-13.39,9.43-12.68,9.13-12.25,14.7-19.7,0,4.84h0a7.88,7.88,0,0,0,7.89,7.82h.07a7.9,7.9,0,0,0,7.83-8l-.27-28.53A7.89,7.89,0,0,0,409.42,160L382,167.82A7.9,7.9,0,0,0,386.3,183l5.24-1.49-15.22,20.39-9.19,12.32L357.64,227l-8.33,11.18ZM417,220.29H391.55a3.38,3.38,0,0,0-3.38,3.38V370.61a3.38,3.38,0,0,0,3.38,3.39H417a3.41,3.41,0,0,0,3.39-3.39v-147a3.39,3.39,0,0,0-3.39-3.38ZM369.2,374a3.4,3.4,0,0,0,3.38-3.39v-95a3.39,3.39,0,0,0-3.38-3.39H343.76a3.39,3.39,0,0,0-3.38,3.39v95a3.4,3.4,0,0,0,3.38,3.39Z"/></g></g></svg>