<?xml version="1.0" encoding="UTF-8" standalone="no"?>
<!DOCTYPE svg PUBLIC "-//W3C//DTD SVG 1.1//EN" "http://www.w3.org/Graphics/SVG/1.1/DTD/svg11.dtd">
<!-- Created with Vectornator (http://vectornator.io/) -->
<svg height="100%" stroke-miterlimit="10" style="fill-rule:nonzero;clip-rule:evenodd;stroke-linecap:round;stroke-linejoin:round;" version="1.1" viewBox="0 0 58 57" width="100%" xml:space="preserve" xmlns="http://www.w3.org/2000/svg" xmlns:vectornator="http://vectornator.io" xmlns:xlink="http://www.w3.org/1999/xlink">
<defs/>
<clipPath id="ArtboardFrame">
<rect height="57" width="58" x="0" y="0"/>
</clipPath>
<g clip-path="url(#ArtboardFrame)" id="Untitled" vectornator:layerName="Untitled">
<path d="M5 0.75L45 0.75C47.3472 0.75 49.25 2.65279 49.25 5L49.25 45C49.25 47.3472 47.3472 49.25 45 49.25L5 49.25C2.65279 49.25 0.75 47.3472 0.75 45L0.75 5C0.75 2.65279 2.65279 0.75 5 0.75Z" fill="none" opacity="1" stroke="#999696" stroke-dasharray="3.0,3.0" stroke-linecap="butt" stroke-linejoin="miter" stroke-width="1.5"/>
<path d="M13 7L53 7C55.7614 7 58 9.23858 58 12L58 52C58 54.7614 55.7614 57 53 57L13 57C10.2386 57 8 54.7614 8 52L8 12C8 9.23858 10.2386 7 13 7Z" fill="#f4803c" fill-rule="nonzero" opacity="1" stroke="none"/>
</g>
</svg>
